Patient4_TMGait_0pt7_01_right_47_EMG.mot
version=1
nRows=33
nColumns=33
inDegrees=no
endheader
time	1LAddLong	2LGlutMax	3LGlutMed	4LIliopsoas	5LSemiMemb	6LBicFemLong	7LRecFem	8LVastMed	9LVastLat	10LGasMed	11LTibAnt	12lTibPost	13LPeroneusLong	14LSol	15LExtDigLong	16LFlexDigLong	17RAddLong	18RGlutMax	19RGlutMed	20RIliopsoas	21RSemiMemb	22RBicFemLong	23RRecFem	24RVastMed	25RVastLat	26RGasMed	27RTibAnt	28RTibPost	29RPeroneusLong	30RSol	31RExtDigLong	32RFlexDigLong
54.8	0.005951	0.56397	-0.034637	0.003967	-0.060577	-0.11566	-0.033875	-0.000458	0.04303	-0.065918	-0.009003	-0.001984	0.052185	0.12924	0.04425	-0.017395	0.06012	0.089722	1.2791	-0.15961	0.27237	-0.089111	-0.46066	-0.041504	-0.014496	0.014801	0.30868	-0.023651	0.18478	0.00946	-0.002747	-0.015564
54.801	0.016479	0.59708	-0.039368	-0.014648	-0.043945	-0.34103	-0.000916	0.001984	-0.062714	-0.27206	0.013123	-0.008392	0.06424	0.15549	0.034027	-0.011139	0.02594	-0.10559	1.6473	-0.070496	0.046692	-0.18433	-0.50003	-0.087738	-0.078125	0.003967	0.10239	0.024719	-0.016327	0.11429	-0.001526	-0.041351
54.802	0.038147	0.58304	-0.066528	-0.016327	0.019989	-0.56854	-0.019226	-0.004578	-0.1152	-0.26413	0.032959	-0.003967	0.11017	0.14954	0.010986	0.01236	-0.044556	-0.21179	-0.55634	0.11765	0.2124	-0.25711	-0.66391	0.001984	-0.091095	0.002136	-0.053864	0.010529	-0.09964	0.29404	-0.001984	-0.018158
54.803	0.042725	0.56152	-0.10254	-0.006866	0.1265	-0.75378	-0.057526	-0.009308	-0.049438	-0.14679	0.054321	-0.008545	0.11063	0.112	-0.01709	0.000458	-0.043335	-0.28091	-1.1931	0.11246	0.2565	-0.17181	-0.60303	0.034943	-0.055389	-0.008392	-0.028229	-0.027466	-0.097656	0.26718	0.002899	-0.024872
54.804	0.04776	0.49316	-0.099487	0.009613	0.095978	-0.68344	-0.086823	-0.021057	0.089722	-0.098267	0.016785	-0.005493	0.048981	0.12573	-0.027161	0.006714	-0.001068	-0.27664	0.21988	0.04425	0.41138	-0.080414	-0.52383	-0.12863	-0.077515	-0.019531	0.00412	-0.32425	-0.061188	0.036011	-0.002136	-0.02243
54.805	0.03479	0.50262	-0.061493	-0.017548	0.037689	-0.42236	-0.089264	-0.018311	0.1033	0.032349	-0.048523	-0.009918	0.15839	0.036316	-0.016174	0.007324	0.03006	-0.27359	0.43625	0.050659	0.42404	-0.11047	-0.75226	-0.24475	-0.040131	-0.010986	0.078125	0.10407	-0.29465	-0.097961	-0.002136	-0.029449
54.806	0.019836	0.43808	-0.053101	0.001221	-0.027161	-0.27313	-0.042725	-0.019226	-0.015411	0.069122	-0.023346	-0.016632	0.18021	0.014648	0.040894	-0.000305	0.06073	-0.3566	-0.18433	0.050354	0.4068	-0.17395	-0.79193	-0.26077	0.044098	-0.002136	0.06546	0.001221	-0.35797	-0.38864	-0.001831	-0.018463
54.807	0.016022	0.3714	-0.040741	0.038147	-0.095673	-0.02182	0.06012	-0.006714	-0.1416	0.021667	0.027161	-0.006561	0.023193	-0.001221	0.076447	0.011597	0.056915	-0.34393	-0.33478	-0.014038	0.35782	-0.17334	-0.75134	-0.11597	0.091858	-0.005798	0.034637	-0.038147	-0.10162	-0.015717	-0.000916	-0.01709
54.808	0.003662	0.43457	-0.005951	0.020142	-0.080414	0.16266	0.085297	-0.007324	-0.16769	-0.032806	-0.029907	-0.002136	-0.18982	0.13886	0.035706	0.016785	0.00946	-0.3418	-0.38956	-0.054169	0.39963	-0.30289	-0.6488	-0.051575	0.045166	0.013733	0.055695	-0.12451	-0.089874	0.47928	-0.001373	-0.022888
54.809	0.01297	0.53146	0.013733	0.00473	-0.082703	0.23163	0.081482	-0.006409	-0.18402	0.057983	-0.034485	-0.002289	0.045319	0.12146	-0.018311	0.007935	-0.003967	-0.3418	-0.17975	-0.073853	0.30075	-0.32303	-0.59357	0.21179	0.002136	0.015411	0.025024	-0.043793	-0.12268	0.54947	-0.00412	-0.006561
54.81	0.000305	0.59021	0.022278	-0.006714	-0.063324	0.27039	0.10117	0.007629	-0.14923	0.11948	-0.020447	-0.009308	0.15381	0.09491	-0.010834	0.007019	-0.002289	-0.34698	-0.43503	-0.12985	0.1738	-0.18539	-0.60455	0.17716	-0.035706	0.033722	0.080414	0.010223	-0.39002	-0.10361	-0.002441	-0.02182
54.811	0.014343	0.59036	0.007324	-0.004883	0.009003	0.22675	0.11627	0.015106	-0.13794	0.12528	0.002441	0.003357	0.33997	0.12222	0.015564	-0.002899	0.007935	-0.35721	-0.57022	-0.069427	0.32044	-0.11459	-0.63324	0.087585	-0.045929	0.030975	0.12039	-0.12909	-0.30395	-0.53558	-0.000458	-0.0177
54.812	0.014954	0.54321	0.022278	-0.002747	0.032196	0.15121	0.12009	0.009766	-0.058289	0.14389	0.010681	0.001373	0.44769	0.15503	-0.017853	0.004425	0.024567	-0.30304	-0.22522	0.035706	0.33295	-0.19745	-0.54504	0.031433	-0.032501	0.057526	0.031281	-0.23605	-0.38696	-0.63568	-0.001221	-0.016632
54.813	0.010834	0.47287	0.13626	-0.005798	0.089264	0.018158	0.09552	0.012665	-0.011749	0.14358	0.004272	-0.004272	0.32791	0.2063	0.028076	0.010223	0.033569	-0.23361	-0.12894	0.10941	0.21408	-0.41504	-0.55771	0.048676	-0.036926	-0.012665	-0.012665	0.31021	-0.71579	-0.84869	0.000763	-0.019836
54.814	0.015564	0.49271	0.088196	-0.032196	0.18219	-0.40985	0.059204	0.017395	-0.002899	-0.004425	0.002747	-0.001221	0.34576	0.28763	0.13107	0.009155	0.030365	-0.25055	-0.048523	0.14679	0.071869	-0.22568	-0.53894	-0.013275	-0.046844	-0.089722	0.014343	0.033722	-0.64804	-0.87326	-0.000305	-0.032806
54.815	0.025787	0.47531	0.06134	-0.023956	0.19287	-0.80704	0.046844	0.009918	0.054626	-0.27603	0.008087	-0.003967	-0.053253	0.26321	0.082092	0.012512	-0.007477	-0.2655	-0.10208	0.22492	0.062103	0.15167	-0.56488	0.092468	0	-0.12482	0.10468	0.046387	-0.28336	-0.99335	-0.00061	-0.041199
54.816	0.029755	0.45136	0.011444	0.000916	0.1062	-0.55618	-0.000305	-0.007477	0.11749	-0.26764	-0.000153	-0.011139	-0.034027	0.13306	-0.050507	0.008392	-0.018158	-0.26718	-0.2655	0.2063	0.38284	0.25314	-0.53207	0.13809	-0.011749	-0.12161	0.088196	-0.052795	0.49515	-0.56046	-0.00061	-0.035553
54.817	0.025177	0.38727	0.029297	0.014038	0.02121	-0.22659	-0.06073	-0.007477	0.12543	-0.24567	0.009918	-0.005035	-0.44846	-0.098114	-0.22461	0.015106	-0.028381	-0.29846	-0.35767	0.1033	0.54565	0.16266	-0.5246	0.12817	-0.023346	-0.038452	0.067749	0.30167	0.54245	0.45273	0	-0.02243
54.818	0.004578	0.36865	-0.010071	0.002289	-0.033417	0.080414	-0.021515	-0.002747	0.11139	-0.11093	-0.001068	-0.000763	-0.007782	-0.21576	-0.25223	0.011597	-0.0383	-0.22614	-0.41855	0.037537	0.62302	0.071106	-0.47775	0.10971	0.022278	-0.029755	0.04425	0.26535	0.62271	1.5993	-0.002441	-0.023346
54.819	-0.025024	0.31387	-0.068054	-0.003815	-0.090637	0.25146	-0.005798	-0.006104	0.12848	-0.0737	-0.014496	0.002747	0.10132	-0.15182	-0.10223	-0.013275	-0.050964	-0.23575	-0.35767	0.001373	0.47745	-0.013275	-0.40207	0.1149	0.049438	-0.02655	0.037537	0.11231	0.30624	1.5578	-0.003357	-0.021057
54.82	-0.044403	0.30884	-0.10849	0.013733	-0.092316	0.28854	0.066681	0.003815	0.071716	-0.046844	0.014038	0.000916	-0.018158	0.083923	0.051117	0.006561	-0.02594	-0.31128	-0.51041	0.016937	0.21225	-0.034485	-0.29587	0.055084	0.056915	-0.019989	0.051422	0.028381	0.16937	1.2006	-0.004578	-0.033569
54.821	-0.052032	0.23361	-0.14328	0.00412	-0.013275	0.23773	0.12451	0.01358	-0.005493	-0.014343	0.025787	0.004578	-0.23621	0.058441	0.014648	0.022125	-0.014801	-0.24109	-0.53543	0.012817	0.11887	-0.18356	-0.16251	0.029144	0.017242	0.000763	-0.014343	0.006256	0.22201	0.90439	-0.004425	-0.013885
54.822	-0.03891	0.16937	-0.13672	0.007019	0.029907	0.22003	0.13092	0.019379	-0.040588	-0.020599	-0.008545	-0.001068	-0.28107	0.059662	-0.006409	0.013428	-0.038452	-0.22568	-0.20157	-0.057678	0.004425	-0.14603	-0.24307	0.045624	0.12054	0.000458	-0.021362	-0.014954	0.2179	0.26443	0.001068	-0.028839
54.823	-0.050049	0.18097	-0.15198	0.00351	0.083313	0.20248	0.11902	0.027008	-0.014801	0.021057	0.001984	0	-0.096893	0.063782	-0.046844	0.00885	-0.066376	-0.22415	-0.079346	-0.08667	0.41672	-0.06012	-0.44281	0.10223	0.19714	-0.009766	0.084076	-0.027618	0.011444	-0.054626	-0.001526	-0.030823
54.824	-0.043793	0.15717	-0.091858	0.016937	0.10346	0.23041	0.080566	0.020599	0.059509	0.18463	-0.018158	0.019379	0.048523	-0.12863	-0.034485	-0.003662	-0.041504	-0.16007	-0.33859	-0.059357	0.4361	-0.025024	-0.30868	0.030518	0.16434	-0.009613	0.096283	-0.039215	-0.093689	-0.12833	-0.003357	-0.014648
54.825	-0.036316	0.11688	-0.046844	0.021667	0.064697	0.21896	0.061493	0.020294	0.16357	0.20157	-0.010529	0.022125	0.018158	-0.17822	0.036926	0.00885	-0.023651	-0.25787	-0.3389	-0.056915	0.36377	-0.06897	-0.63232	-0.12833	-0.66132	-0.002441	-0.21439	-0.042419	0.028076	-0.11597	-0.003967	-0.007935
54.826	-0.024719	0.066376	-0.023041	0.021515	0.022736	-0.47379	0.031738	0.012512	0.21606	0.023956	-0.00473	0.030212	-0.15976	-0.13794	0.10315	0.016174	-0.001068	-0.33325	-0.3038	-0.019226	0.30273	-0.07019	-0.93048	-0.1445	-0.49713	0.001526	-0.24658	-0.034485	0.11658	-0.16617	0.000305	-0.016785
54.827	-0.023346	0.1265	0.026398	-0.001068	-0.001678	-0.81451	0.052795	0.009155	0.20065	0.006714	-0.030212	0.041351	-0.11154	-0.095978	0.089264	0.008698	0.007477	-0.27313	-0.20554	-0.064697	0.23972	-0.095215	-1.082	-0.26382	-0.1712	0.016327	-0.029755	-0.035553	0.13199	-0.16602	-0.003815	-0.013733
54.828	-0.016937	0.072327	0.030518	0.005341	-0.086975	-0.40207	0.030975	-0.001068	0.21988	-0.029755	-0.11047	0.04303	-0.059662	-0.18829	0.063171	0.030518	0.016785	-0.30609	-0.30289	-0.057526	0.098572	-0.11612	-0.89142	-0.16769	-0.018158	0.019989	0.11246	-0.037079	0.14511	-0.26916	0.005493	-0.008545
54.829	0.009766	0.028687	0.052032	-0.001068	-0.13718	-0.058136	0.00824	0.009766	0.271	-0.035706	-0.078888	0.050964	-0.090485	-0.024872	0.06897	0.036926	0.006409	-0.2385	-0.38422	-0.065613	0.16144	-0.24277	-0.71152	0.099182	0.052795	0.017395	0.38177	-0.02655	0.059204	-0.35553	0.000153	-0.010223
54.83	0.014038	-0.023651	0.017395	0.000458	-0.093994	-0.041351	0.048523	0.03418	0.13901	-0.039825	-0.005493	0.046539	-0.018463	0.19974	0.075836	0.032654	0.013123	-0.20905	-0.42084	-0.023193	0.19394	-0.26184	-0.6485	0.13046	0.15137	0.019836	-0.26001	-0.036163	0.029602	-0.40771	-0.000458	-0.007019
54.831	0.027924	-0.033569	-0.057831	0.002747	-0.05661	-0.15717	0.077667	0.015564	-0.17914	-0.063629	0.090637	0.042267	-0.12421	0.289	0.086823	0.038757	0.024414	-0.2565	-0.34332	-0.019226	0.10056	-0.2594	-0.54672	0.020752	0.041504	0.02243	-0.22278	-0.028534	0.13779	-0.38238	-0.001984	-0.002747
54.832	0.031586	-0.036774	-0.079193	0.003052	-0.012207	-0.27344	0.033417	0.014648	-0.25299	-0.066833	0.11963	0.042267	-0.028687	0.2327	-0.045319	0.033264	0.052185	-0.22644	-0.32044	-0.003052	0.02121	-0.24445	-0.4924	-0.038757	-0.10391	0.000458	0.11246	-0.12482	0.070038	-0.12436	-0.001221	-0.016479
